# xmcd CD database file
#
# Track frame offsets:
#	150
#	19642
#	49202
#	84414
#	107971
#	129806
#	146797
#	168754
#	188475
#	227632
#	248678
#	268187
#
# Disc length: 3811 seconds
#
# Revision: 0
# Processed by: cddbd v1.5.2PL0 Copyright (c) Steve Scherf et al.
# Submitted via: CDex 1.70beta2
#
DISCID=960ee10c
DTITLE=Taste Of Blue - in groove we trust
DYEAR=2004
DGENRE=Blues
TTITLE0=Cool Shaker
TTITLE1=Swing The Begin
TTITLE2=Blue Night
TTITLE3=What A Cheek
TTITLE4=Further Steps
TTITLE5=Herbstlichter
TTITLE6=Behind The Latin Killer
TTITLE7=Twilight Blues
TTITLE8=The Way To Atmosphere
TTITLE9=Petit Bossa
TTITLE10=Chicken Dance
TTITLE11=Slow Down Part 2
EXTD=YEAR: 2004
EXTT0=
EXTT1=
EXTT2=
EXTT3=
EXTT4=
EXTT5=
EXTT6=
EXTT7=
EXTT8=
EXTT9=
EXTT10=
EXTT11=
PLAYORDER=
